<?xml version="1.0" encoding="utf-8"?>
<!-- Generator: Adobe Illustrator 19.0.0, SVG Export Plug-In . SVG Version: 6.00 Build 0)  -->
<svg version="1.1" id="Layer_1" xmlns="http://www.w3.org/2000/svg" xmlns:xlink="http://www.w3.org/1999/xlink" x="0px" y="0px"
	 viewBox="-708.5 274.1 271 185.5" style="enable-background:new -708.5 274.1 271 185.5;" xml:space="preserve">
<style type="text/css">
	.st0{fill:none;}
	.st1{fill:#A2E0F9;}
	.st2{fill:#0295FF;}
	.st3{fill:#58BDFC;}
</style>
<g>
	<path class="st0" d="M-510.9,316.6h19.2c5.7,0,11.3,0.9,16.5,2.6c-1.4-8.2-3.9-15.7-7.3-21.8c-5.1-9.2-11.5-14.2-18.2-14.2
		c0,0,0,0,0,0c-6.6,0-13.1,5-18.2,14.2c-1.5,2.7-2.8,5.6-3.9,8.8C-518.5,309.2-514.5,312.8-510.9,316.6z"/>
	<path class="st0" d="M-569.2,289.7c-0.7-5.9-2.7-9.1-3.7-9.1c0,0,0,0,0,0c-1,0-3,3.2-3.8,9.1c1.2-0.1,2.5-0.1,3.7-0.1
		C-571.7,289.6-570.5,289.6-569.2,289.7z"/>
	<path class="st0" d="M-635.1,316.6c4.5-4.9,9.6-9.2,15.2-12.9c-0.2-0.5-0.5-0.9-0.7-1.4c-5.1-9.2-11.5-14.2-18.2-14.2c0,0,0,0,0,0
		c-6.6,0-13.1,5-18.2,14.2c-2.4,4.4-4.4,9.4-5.8,14.9c2.7-0.4,5.6-0.7,8.4-0.7H-635.1z"/>
	<path class="st0" d="M-573,407.1c17.9,0,32.5-14.6,32.5-32.5s-14.6-32.5-32.5-32.5s-32.5,14.6-32.5,32.5S-590.9,407.1-573,407.1z"
		/>
	<path class="st1" d="M-546.1,303.5c-0.4,0-0.8,0-1.3,0c-8.8,0-13.5,2.8-13.5,4s4.7,4,13.5,4c6.3,0,10.5-1.5,12.4-2.7
		c0.8-0.5,1.1-1,1.1-1.3C-533.9,306.4-538.2,303.8-546.1,303.5z"/>
	<path class="st2" d="M-572.9,280.6C-572.9,280.6-572.9,280.6-572.9,280.6c1,0,3,3.2,3.7,9.1c1.4,0.1,2.7,0.2,4,0.3
		c-0.7-7.1-3.3-13.3-7.7-13.4c-4.4,0-7.1,6.2-7.9,13.4c1.3-0.1,2.7-0.2,4-0.3C-575.9,283.8-573.9,280.6-572.9,280.6z"/>
	<path class="st1" d="M-656.9,302.3c5.1-9.2,11.5-14.2,18.2-14.2c0,0,0,0,0,0c6.6,0,13.1,5.1,18.2,14.2c0.2,0.5,0.5,0.9,0.7,1.4
		c2.5-1.7,5.1-3.2,7.8-4.6c-0.2-0.4-0.4-0.8-0.6-1.2c-6.7-12.2-16-18.9-26-18.9c0,0,0,0,0,0c-10.1,0-19.3,6.7-26,18.9
		c-3.5,6.3-6.1,13.7-7.7,21.8c3.1-1.1,6.4-2,9.8-2.5C-661.3,311.8-659.3,306.7-656.9,302.3z"/>
	<path class="st2" d="M-655.7,394c-1.4-5.8-2.1-11.9-2.2-18.1c0-0.4,0-0.9,0-1.3c0-18.2,5.8-35.1,15.6-49c2.2-3.2,4.7-6.2,7.3-9
		h-19.2c-2.9,0-5.7,0.2-8.4,0.7c-3.4,0.5-6.7,1.4-9.8,2.5c-21,7.5-36,27.6-36,51.1v7.6c0,29.9,24.3,54.2,54.2,54.2h19.2
		c-2.6-2.8-5.1-5.8-7.3-9C-648.6,414.8-653.2,404.8-655.7,394z"/>
	<path class="st1" d="M-597.5,303.5c-0.9,0-1.7,0-2.5,0.1c-4.2,0.3-7.3,1.2-9.1,2.2c-1.3,0.7-1.9,1.3-1.9,1.8c0,0.3,0.2,0.6,0.7,0.9
		c0.6,0.5,1.5,1,2.8,1.5c2.3,0.9,5.7,1.6,10.1,1.6c8.8,0,13.5-2.8,13.5-4S-588.7,303.5-597.5,303.5z"/>
	<path class="st2" d="M-573,338.1c-13.1,0-24.7,7-31.1,17.4c-3.4,5.6-5.4,12.1-5.4,19.1c0,0.3,0,0.6,0,0.9
		c0.5,19.7,16.7,35.6,36.5,35.6c20.1,0,36.5-16.4,36.5-36.5S-552.9,338.1-573,338.1z M-573,407.1c-17.9,0-32.5-14.6-32.5-32.5
		s14.6-32.5,32.5-32.5s32.5,14.6,32.5,32.5S-555.1,407.1-573,407.1z"/>
	<path class="st2" d="M-589.2,300.4c-2.6-0.6-5.4-0.9-8.3-0.9c-4.9,0-9.8,0.9-13.2,2.5c-2.6,1.3-4.3,3.1-4.3,5.5
		c0,1.1,0.4,2.2,1.2,3.1c1.5,1.8,4.3,3.1,7.6,4c2.7,0.7,5.7,1,8.7,1c8.7,0,17.5-2.7,17.5-8C-580,304-584,301.6-589.2,300.4z
		 M-597.5,311.5c-4.4,0-7.8-0.7-10.1-1.6c-1.3-0.5-2.2-1-2.8-1.5c-0.4-0.4-0.7-0.7-0.7-0.9c0-0.4,0.7-1.1,1.9-1.8
		c1.8-0.9,4.9-1.9,9.1-2.2c0.8-0.1,1.6-0.1,2.5-0.1c8.8,0,13.5,2.8,13.5,4S-588.7,311.5-597.5,311.5z"/>
	<path class="st1" d="M-518.8,297.3c5.1-9.2,11.5-14.2,18.2-14.2c0,0,0,0,0,0c6.6,0,13.1,5.1,18.2,14.2c3.4,6.2,5.9,13.7,7.3,21.8
		c3.4,1.1,6.6,2.5,9.7,4.2c-1.3-11.4-4.4-21.9-9.1-30.4c-6.7-12.2-16-18.9-26-18.9c0,0,0,0,0,0c-10.1,0-19.3,6.7-26,18.9
		c-1.4,2.5-2.7,5.2-3.8,8.1c2.7,1.5,5.2,3.2,7.7,5C-521.6,303-520.3,300-518.8,297.3z"/>
	<path class="st2" d="M-465.6,323.3c-3.1-1.7-6.3-3.1-9.7-4.2c-5.2-1.7-10.7-2.6-16.5-2.6h-19.2c2.6,2.8,5.1,5.8,7.3,9
		c9.8,13.9,15.6,30.8,15.6,49c0,2.1-0.1,4.2-0.3,6.3c-0.3,4.3-1,8.5-1.9,12.6c-2.5,11-7.1,21.2-13.5,30.1c-2.2,3.2-4.7,6.2-7.3,9
		h19.2c29.9,0,54.2-24.3,54.2-54.2v-7.6C-437.5,350.4-448.8,332.6-465.6,323.3z"/>
	<path class="st3" d="M-503.6,325.6c-2.2-3.2-4.7-6.2-7.3-9c-3.6-3.8-7.5-7.4-11.8-10.5c-2.5-1.8-5-3.5-7.7-5
		c-10.4-6-22.2-9.9-34.7-11.1c-1.3-0.1-2.7-0.2-4-0.3c-1.3-0.1-2.5-0.1-3.8-0.1c-1.2,0-2.5,0-3.7,0.1c-1.4,0.1-2.7,0.2-4,0.3
		c-11.2,1-21.8,4.2-31.3,9.2c-2.7,1.4-5.3,2.9-7.8,4.6c-5.6,3.7-10.7,8-15.2,12.9c-2.6,2.8-5.1,5.8-7.3,9
		c-9.8,13.9-15.6,30.8-15.6,49c0,0.4,0,0.9,0,1.3c0.1,6.2,0.9,12.3,2.2,18.1c2.5,10.8,7.1,20.8,13.3,29.6c2.2,3.2,4.7,6.2,7.3,9
		c15.5,16.6,37.6,27,62.1,27s46.5-10.4,62.1-27c2.6-2.8,5.1-5.8,7.3-9c6.3-8.9,11-19.1,13.5-30.1c0.9-4.1,1.6-8.3,1.9-12.6
		c0.2-2.1,0.3-4.2,0.3-6.3C-488,356.4-493.8,339.5-503.6,325.6z M-573,411.1c-19.8,0-36-15.9-36.5-35.6c0-0.3,0-0.6,0-0.9
		c0-7,2-13.5,5.4-19.1c6.4-10.5,18-17.4,31.1-17.4c20.1,0,36.5,16.4,36.5,36.5S-552.9,411.1-573,411.1z M-531.5,311
		c-0.7,0.7-1.5,1.3-2.5,1.8c-0.3,1.3-0.5,2.5-0.8,3.8h-70.9c-0.2-0.7-0.3-1.4-0.5-2.1c-3.4-0.8-6.1-2.1-7.6-4
		c-0.7-0.9-1.2-1.9-1.2-3.1c0-2.3,1.7-4.1,4.3-5.5c3.4-1.7,8.3-2.5,13.2-2.5c2.8,0,5.7,0.3,8.3,0.9c2.8-0.6,5.6-1.1,8.5-1.4
		c1.3-0.1,2.6-0.2,4-0.3c1.2-0.1,2.5-0.1,3.7-0.1c1.2,0,2.5,0,3.7,0.1c1.3,0.1,2.7,0.2,4,0.3c3.1,0.3,6.1,0.8,9.1,1.5
		c2.7-0.7,5.7-1,8.8-1c6.5,0,13,1.5,15.9,4.5c1,1,1.6,2.2,1.6,3.5C-529.9,308.8-530.5,310-531.5,311z"/>
	<path class="st2" d="M-531.5,304c-2.9-2.9-9.4-4.5-15.9-4.5c-3,0-6.1,0.3-8.8,1c-5,1.2-8.7,3.6-8.7,7c0,5.3,8.8,8,17.5,8
		c5,0,10-0.9,13.4-2.7c1-0.5,1.9-1.1,2.5-1.8c1-1,1.6-2.2,1.6-3.5C-529.9,306.1-530.5,305-531.5,304z M-547.4,311.5
		c-8.8,0-13.5-2.8-13.5-4s4.7-4,13.5-4c0.4,0,0.9,0,1.3,0c7.9,0.3,12.2,2.9,12.2,4c0,0.3-0.4,0.8-1.1,1.3
		C-537,310-541.2,311.5-547.4,311.5z"/>
</g>
</svg>
